PathFileType	4	(X/Y/Z)	3_coords_data.trc
DataRate	CameraRate	NumFrames	NumMarkers	Units	OrigDataRate	OrigDataStartFrame	OrigNumFrames
30.0	30.0	8	21	m	30.0	39	58
Frame#	Time	THUMB_TIP	THUMB_IP	THUMB_MCP	THUMB_CMC	INDEX_TIP	INDEX_DIP	INDEX_PIP	INDEX_MCP	MIDDLE_TIP	MIDDLE_DIP	MIDDLE_PIP	MIDDLE_MCP	RING_TIP	RING_DIP	RING_PIP	RING_MCP	PINKY_TIP	PINKY_DIP	PINKY_PIP	PINKY_MCP	WRIST
X1	Y1	Z1	X2	Y2	Z2	X3	Y3	Z3	X4	Y4	Z4	X5	Y5	Z5	X6	Y6	Z6	X7	Y7	Z7	X8	Y8	Z8	X9	Y9	Z9	X10	Y10	Z10	X11	Y11	Z11	X12	Y12	Z12	X13	Y13	Z13	X14	Y14	Z14	X15	Y15	Z15	X16	Y16	Z16	X17	Y17	Z17	X18	Y18	Z18	X19	Y19	Z19	X20	Y20	Z20	X21	Y21	Z21
38	1.2666666666666666	-0.095029296875	-0.14572300720214842	0.9863930053710938	-0.08703309631347657	-0.122875	1.00122998046875	-0.09269889831542968	-0.10226799774169922	1.0250999755859376	-0.09501820373535157	-0.07045249938964844	1.0469100341796875	-0.0608109016418457	-0.0838458023071289	0.9050599975585938	-0.06487539672851562	-0.08203279876708984	0.9288070068359375	-0.0706425018310547	-0.07954429626464844	0.9528179931640625	-0.08044029998779297	-0.07426640319824218	0.98968701171875	-0.059722999572753906	-0.04574530029296875	0.8963560180664063	-0.06368349838256836	-0.04750379943847656	0.9220499877929688	-0.07025779724121094	-0.0493302001953125	0.9508389892578125	-0.08018879699707031	-0.051475200653076175	0.9870159912109375	-0.046835300445556644	-0.0015065100193023683	0.922426025390625	-0.05561679840087891	-0.009573519706726074	0.9432830200195312	-0.06701260375976563	-0.018670299530029296	0.9652860107421875	-0.08175959777832031	-0.03227560043334961	0.9961069946289063	-0.049953800201416015	0.025160200119018556	0.961323974609375	-0.05962770080566406	0.013644499778747559	0.974989990234375	-0.06881700134277344	0.0024989700317382814	0.9873099975585937	-0.07946790313720703	-0.015774700164794923	1.0064600219726563	-0.11747599792480469	-0.0431963996887207	1.064030029296875
39	1.3	-0.09391850280761718	-0.1454429931640625	0.9839739990234375	-0.08743240356445313	-0.12269000244140625	0.9998410034179688	-0.09342559814453125	-0.10258100128173828	1.0245899658203126	-0.09525050354003907	-0.07102850341796875	1.0466700439453125	-0.06115219879150391	-0.08380609893798828	0.9048790283203125	-0.06650969696044921	-0.08214669799804687	0.9283389892578126	-0.07310099792480469	-0.07984729766845704	0.9521229858398438	-0.08313809967041015	-0.07489459991455077	0.9891119995117188	-0.06108160018920898	-0.04606809997558594	0.89593701171875	-0.06612020111083984	-0.04789139938354492	0.92147802734375	-0.07329399871826171	-0.04984280014038086	0.9501820068359375	-0.08298619842529296	-0.052062301635742186	0.9865150146484375	-0.047769798278808596	-0.003196079969406128	0.9218469848632812	-0.05732569885253906	-0.010850299835205078	0.9426929931640625	-0.06917350006103516	-0.01958810043334961	0.9646500244140624	-0.08395639801025391	-0.03292610168457031	0.995655029296875	-0.049768199920654295	0.022858400344848633	0.96043701171875	-0.05995840072631836	0.011938199996948243	0.9741640014648437	-0.06958049774169922	0.0012189600467681881	0.986666015625	-0.08058599853515624	-0.016548500061035157	1.006219970703125	-0.11722200012207032	-0.04380339813232422	1.064449951171875
40	1.3333333333333333	-0.09155370330810547	-0.14433900451660156	0.98064697265625	-0.0878125991821289	-0.12183399963378906	0.9980880126953126	-0.09433100128173828	-0.10251200103759765	1.0235900268554687	-0.09572889709472657	-0.07132160186767578	1.045989990234375	-0.06065629959106445	-0.08293060302734374	0.904905029296875	-0.06794029998779297	-0.08155950164794921	0.9276339721679687	-0.07597989654541015	-0.0795687026977539	0.9509769897460938	-0.08681600189208985	-0.07505989837646485	0.98810400390625	-0.06195619964599609	-0.045793399810791016	0.8956669921875	-0.06851010131835937	-0.047677101135253905	0.9206539916992188	-0.07694539642333985	-0.04982709884643555	0.9490679931640625	-0.08668779754638672	-0.052152999877929686	0.985510009765625	-0.049457000732421874	-0.005013539791107178	0.9208259887695313	-0.05975550079345703	-0.012019800186157227	0.9413259887695312	-0.07224500274658203	-0.020126300811767577	0.9633150024414062	-0.0869364013671875	-0.03298630142211914	0.9947780151367187	-0.05050210189819336	0.020757499694824218	0.9586920166015624	-0.06133950042724609	0.01056130027770996	0.9726119995117187	-0.07143990325927735	0.00044787898659706107	0.9852009887695312	-0.08264510345458985	-0.016869300842285155	1.005280029296875	-0.11702799987792968	-0.04408530044555664	1.06427001953125
41	1.3666666666666667	-0.08970950317382813	-0.14237600708007814	0.9774520263671875	-0.08845189666748046	-0.12020800018310547	0.9959860229492188	-0.09501280212402344	-0.10174700164794923	1.0220800170898436	-0.09622879791259766	-0.07109220123291016	1.04497998046875	-0.05891189956665039	-0.08110479736328124	0.9058989868164062	-0.06909300231933593	-0.08009269714355469	0.9272999877929687	-0.07927739715576172	-0.07865509796142578	0.9496669921875	-0.09063089752197266	-0.07485790252685547	0.9868699951171875	-0.060938899993896484	-0.04502619934082031	0.8963790283203125	-0.06998809814453125	-0.046943599700927735	0.9203070068359375	-0.08049169921875	-0.04919969940185547	0.94785302734375	-0.09075019836425781	-0.051893798828125	0.98460302734375	-0.05084170150756836	-0.007034870147705078	0.9200159912109375	-0.06223979949951172	-0.013132200241088868	0.9401160278320313	-0.07583550262451172	-0.020448400497436525	0.961905029296875	-0.09056340026855468	-0.03266559982299805	0.9935640258789062	-0.05167839813232422	0.018447799682617186	0.9567349853515625	-0.06314080047607422	0.009271289825439453	0.97075	-0.0738947982788086	-0.000159605994820594	0.9836710205078125	-0.08525820159912109	-0.016618099212646485	1.0041900024414063	-0.1171259994506836	-0.044009201049804686	1.06397998046875
42	1.4	-0.08737979888916016	-0.13851100158691407	0.9734520263671875	-0.08842160034179687	-0.11734300231933593	0.993426025390625	-0.09531690216064453	-0.10036000061035157	1.0204500122070312	-0.09674220275878906	-0.07038749694824219	1.0440400390625	-0.056513999938964846	-0.0780364990234375	0.9081290283203125	-0.06990270233154297	-0.07758519744873046	0.9276110229492187	-0.08248560333251953	-0.07680609893798829	0.9485349731445313	-0.0946072998046875	-0.07414399719238281	0.9855579833984375	-0.05788819885253906	-0.04364250183105469	0.8987470092773437	-0.07009100341796876	-0.04556240081787109	0.9206420288085938	-0.0835103988647461	-0.04798550033569336	0.94685302734375	-0.09493049621582031	-0.05122249984741211	0.9836589965820313	-0.05058720016479492	-0.009300040245056153	0.9206179809570313	-0.06380400085449218	-0.014161700248718262	0.939469970703125	-0.07914820098876953	-0.020344600677490235	0.960364013671875	-0.09460659790039062	-0.031930500030517575	0.9923469848632812	-0.05191019821166992	0.015506999969482422	0.955218994140625	-0.0645436019897461	0.007791860103607178	0.9689569702148437	-0.07622579956054687	-0.000592337012290954	0.9819879760742187	-0.08823899841308594	-0.015924699783325197	1.0030399780273438	-0.11736900329589844	-0.04373870086669922	1.06377001953125
43	1.4333333333333333	-0.08173429870605468	-0.13181300354003905	0.9688770141601563	-0.08643509674072265	-0.11303800201416016	0.9905159912109375	-0.09476740264892577	-0.09813169860839843	1.0185800170898438	-0.09706620025634766	-0.06916660308837891	1.0431800537109375	-0.053080398559570315	-0.07308830261230469	0.9122579956054687	-0.06950869750976563	-0.07352110290527344	0.9286229858398437	-0.08457089996337891	-0.07385009765625	0.947448974609375	-0.09778859710693359	-0.07300550079345704	0.9843499755859375	-0.05408860015869141	-0.041952301025390625	0.9026640014648437	-0.06934259796142578	-0.043730499267578125	0.921697998046875	-0.08569840240478516	-0.046277099609375	0.9458989868164063	-0.09862149810791015	-0.05019229888916016	0.9831430053710938	-0.0481948013305664	-0.012049500465393066	0.9238560180664063	-0.06392129898071289	-0.015104100227355957	0.9401300048828125	-0.08197339630126953	-0.01988640022277832	0.9593920288085938	-0.09852069854736328	-0.030836599349975586	0.9915969848632813	-0.05053839874267578	0.01128969955444336	0.9554299926757812	-0.06493170166015624	0.0058435602188110355	0.968177001953125	-0.0780449981689453	-0.0009727529883384701	0.980780029296875	-0.09140370178222657	-0.014756999969482421	1.0022000122070311	-0.11748400115966796	-0.04345180130004883	1.0632099609375
44	1.4666666666666666	-0.07488929748535156	-0.12272299957275391	0.9648480224609375	-0.08312960052490234	-0.10749199676513672	0.9878880004882813	-0.09334249877929687	-0.09542620086669922	1.017	-0.0972135009765625	-0.06784290313720703	1.0424000244140625	-0.049307598114013675	-0.06804100036621094	0.9176740112304688	-0.06835929870605469	-0.06917279815673828	0.9305599975585938	-0.08577880096435547	-0.07045829772949219	0.9472429809570313	-0.09993000030517578	-0.07151689910888671	0.9832869873046876	-0.051604198455810546	-0.04066590118408203	0.9068579711914062	-0.06923809814453125	-0.042066200256347656	0.9230780029296874	-0.08779910278320313	-0.04440660095214844	0.94522900390625	-0.10171900177001954	-0.048794498443603514	0.982510986328125	-0.0460088005065918	-0.014720999717712402	0.9281900024414063	-0.06378170013427735	-0.015866900444030763	0.9416010131835938	-0.08431680297851563	-0.0191476993560791	0.9586519775390625	-0.101625	-0.029572500228881835	0.9910549926757812	-0.048821300506591794	0.006559120178222656	0.9569530029296875	-0.06478089904785156	0.004005539894104004	0.9679310302734375	-0.07946800231933594	-0.001021450042724609	0.97981298828125	-0.0940863037109375	-0.013336299896240234	1.0015900268554687	-0.11790399932861328	-0.04244039916992187	1.06297998046875
45	1.5	-0.07118360137939453	-0.11415699768066406	0.9620280151367188	-0.08104730224609374	-0.10191600036621094	0.9860419921875	-0.09179720306396484	-0.09259329986572265	1.0158499755859376	-0.09665059661865234	-0.06646530151367187	1.04202001953125	-0.04777439880371094	-0.06525180053710937	0.9217520141601563	-0.06798709869384766	-0.06653150177001953	0.9320830078125	-0.08655729675292968	-0.06807219696044922	0.9471199951171875	-0.10116300201416016	-0.07006909942626953	0.982927978515625	-0.05061080169677734	-0.03937649917602539	0.9101389770507813	-0.06950350189208984	-0.04052610015869141	0.9242030029296875	-0.08954010009765626	-0.042818500518798826	0.9450139770507813	-0.10380799865722656	-0.04746640014648437	0.9824229736328125	-0.04539469909667969	-0.015989500045776366	0.931969970703125	-0.06422550201416016	-0.015755999565124513	0.9427150268554687	-0.08622039794921875	-0.018077999114990233	0.9579450073242187	-0.10368000030517578	-0.02816819953918457	0.9907529907226562	-0.04906100082397461	0.003526279926300049	0.9584949951171875	-0.06577040100097656	0.003354269981384277	0.9675999755859375	-0.08145089721679688	-0.00029167199134826603	0.9789530029296875	-0.09642130279541015	-0.011711500167846679	1.00125	-0.11785399627685547	-0.04124169921875	1.0629000244140625
